Coordinates
version=1
nRows=26
nColumns=34
inDegrees=yes

Units are S.I. units (second, meters, Newtons, ...)
If the header above contains a line with 'inDegrees', this indicates whether rotational values are in degrees (yes) or radians (no).

endheader
time	pelvis_tilt	pelvis_list	pelvis_rotation	pelvis_tx	pelvis_ty	pelvis_tz	hip_flexion_r	hip_adduction_r	hip_rotation_r	knee_angle_r	ankle_angle_r	subtalar_angle_r	mtp_angle_r	hip_flexion_l	hip_adduction_l	hip_rotation_l	knee_angle_l	ankle_angle_l	subtalar_angle_l	mtp_angle_l	lumbar_extension	lumbar_bending	lumbar_rotation	arm_flex_r	arm_add_r	arm_rot_r	elbow_flex_r	pro_sup_r	arm_flex_l	arm_add_l	arm_rot_l	elbow_flex_l	pro_sup_l
8.800000	-23.997659	0.977515	2.970994	0.676163	0.569479	-0.059820	100.554736	-12.121674	0.139269	96.206551	21.789907	-22.940183	0.000000	99.969655	-7.532399	0.654460	95.583889	24.140844	-17.991081	0.000000	-25.216773	-0.943641	3.066915	136.617261	-7.019445	56.365771	23.785865	58.126353	131.347193	-3.326355	50.120551	16.089126	46.189579
8.816667	-24.035771	0.893501	3.138367	0.675450	0.558167	-0.060250	102.121386	-12.162665	0.543451	98.002215	21.818039	-23.386493	0.000000	101.525435	-7.368262	1.028533	97.295464	24.253935	-17.816878	0.000000	-26.164520	-0.835934	3.187324	138.066907	-6.516284	57.344454	22.708735	58.105424	132.341138	-2.932603	50.264237	15.573507	44.811906
8.833333	-24.122208	0.802197	3.262427	0.674568	0.546979	-0.060655	103.669421	-12.175342	0.928779	99.697057	21.830795	-23.841952	0.000000	103.079834	-7.268594	1.378030	98.913509	24.410095	-17.525609	0.000000	-27.052035	-0.739138	3.242067	139.324735	-6.002551	57.961565	21.759807	58.006632	133.295818	-2.619847	50.331758	15.150634	43.700166
8.850000	-24.249723	0.685999	3.363754	0.673320	0.535882	-0.060944	105.213144	-12.168011	1.279852	101.297663	21.817115	-24.310663	0.000000	104.660320	-7.224932	1.722149	100.439618	24.582139	-17.106697	0.000000	-27.886066	-0.626179	3.196207	140.380345	-5.509655	58.241879	20.986835	57.850242	134.252154	-2.397423	50.322970	14.793439	42.883571
8.866667	-24.385749	0.528465	3.464481	0.671690	0.524887	-0.061081	106.744530	-12.148873	1.581868	102.810842	21.749886	-24.811991	0.000000	106.264130	-7.220791	2.079889	101.880784	24.733852	-16.568044	0.000000	-28.689032	-0.470713	3.044171	141.242060	-5.059425	58.306879	20.351028	57.661843	135.230024	-2.245475	50.269919	14.443507	42.292483
8.883333	-24.494282	0.319842	3.580609	0.669945	0.514087	-0.061095	108.238598	-12.127437	1.825083	104.246834	21.611495	-25.359314	0.000000	107.869669	-7.238350	2.463681	103.255167	24.831949	-15.942855	0.000000	-29.474446	-0.257565	2.811868	141.911815	-4.673152	58.283155	19.786414	57.460151	136.210399	-2.129435	50.214829	14.056926	41.833640
8.900000	-24.558237	0.060750	3.717992	0.668563	0.503675	-0.061059	109.660684	-12.116244	2.009028	105.618600	21.420361	-25.936166	0.000000	109.448653	-7.265322	2.872744	104.586848	24.858968	-15.281763	0.000000	-30.224457	0.013004	2.540661	142.362655	-4.375865	58.264832	19.253063	57.258843	137.129242	-2.020800	50.195780	13.630163	41.436206
8.916667	-24.586343	-0.237823	3.874782	0.668012	0.493893	-0.061038	110.976128	-12.131900	2.144082	106.938075	21.234070	-26.490330	0.000000	110.973207	-7.297016	3.291885	105.895135	24.823659	-14.630330	0.000000	-30.888403	0.327949	2.262145	142.536121	-4.190602	58.303674	18.751846	57.067459	137.890900	-1.911472	50.236340	13.196644	41.061365
8.933333	-24.598878	-0.559288	4.047449	0.668417	0.484907	-0.061075	112.159950	-12.193859	2.247432	108.210275	21.119995	-26.951697	0.000000	112.417774	-7.330429	3.698562	107.184436	24.748221	-14.022788	0.000000	-31.413361	0.669117	1.986966	142.381555	-4.130765	58.411810	18.302717	56.889662	138.409913	-1.810103	50.341419	12.801916	40.692651
8.950000	-24.606549	-0.887236	4.235033	0.669491	0.476741	-0.061205	113.203204	-12.320636	2.336931	109.432784	21.118046	-27.262778	0.000000	113.759082	-7.357468	4.072418	108.440528	24.644148	-13.491281	0.000000	-31.781686	1.020839	1.715692	141.908635	-4.198096	58.572874	17.911639	56.723072	138.655241	-1.725450	50.500247	12.474729	40.325420
8.966667	-24.605397	-1.207673	4.438322	0.670830	0.469323	-0.061460	114.114652	-12.524754	2.427297	110.601589	21.228280	-27.399223	0.000000	114.979062	-7.366703	4.400430	109.636202	24.507589	-13.064344	0.000000	-32.014063	1.372372	1.454424	141.194003	-4.386690	58.758635	17.561703	56.563890	138.653865	-1.656014	50.692403	12.217454	39.963354
8.983333	-24.586163	-1.509771	4.656267	0.672185	0.462591	-0.061841	114.912484	-12.808037	2.526926	111.713036	21.420759	-27.372686	0.000000	116.067393	-7.350130	4.678313	110.741265	24.331478	-12.753409	0.000000	-32.144252	1.715357	1.217697	140.342798	-4.685637	58.944356	17.230996	56.413526	138.460329	-1.592204	50.892908	12.016516	39.619519
9.000000	-24.540317	-1.786677	4.884088	0.673425	0.456557	-0.062288	115.608430	-13.158668	2.635284	112.758565	21.650689	-27.222359	0.000000	117.017907	-7.306292	4.909794	111.730297	24.115286	-12.544973	0.000000	-32.203929	2.039585	1.022096	139.458420	-5.076005	59.114599	16.904360	56.279974	138.133434	-1.521978	51.075510	11.854677	39.313679
9.016667	-24.459509	-2.033562	5.111823	0.674398	0.451302	-0.062731	116.199310	-13.549575	2.744905	113.717836	21.871901	-27.000851	0.000000	117.822065	-7.240073	5.102017	112.584631	23.870196	-12.407145	0.000000	-32.225340	2.332065	0.883141	138.639989	-5.525093	59.261098	16.572227	56.173594	137.733237	-1.436984	51.216028	11.716370	39.065604
9.033333	-24.338669	-2.246454	5.324265	0.674992	0.446942	-0.063162	116.673571	-13.942542	2.845963	114.558981	22.049085	-26.759476	0.000000	118.468638	-7.160390	5.260788	113.291714	23.618425	-12.307426	0.000000	-32.237790	2.583896	0.813535	137.978516	-5.984960	59.384338	16.232312	56.100450	137.319152	-1.337404	51.301374	11.584953	38.885497
9.050000	-24.184165	-2.424931	5.505448	0.675292	0.443586	-0.063637	117.022630	-14.300287	2.928787	115.249056	22.166733	-26.535894	0.000000	118.951248	-7.075473	5.390547	113.848224	23.384546	-12.228581	0.000000	-32.251734	2.797848	0.815461	137.537246	-6.401807	59.502630	15.895243	56.052633	136.940548	-1.230956	51.348184	11.437100	38.758751
9.066667	-24.016225	-2.572385	5.643738	0.675526	0.441320	-0.064211	117.244883	-14.596117	2.986037	115.764614	22.224509	-26.350046	0.000000	119.273582	-6.989607	5.495108	114.262298	23.187894	-12.169535	0.000000	-32.254466	2.984558	0.874278	137.342480	-6.731963	59.660250	15.586374	55.996008	136.637110	-1.126640	51.425783	11.241346	38.627973
9.083333	-23.863737	-2.692540	5.733285	0.675841	0.440225	-0.064884	117.342829	-14.814824	3.013563	116.090042	22.223059	-26.210899	0.000000	119.446105	-6.901863	5.576056	114.542741	23.037888	-12.136791	0.000000	-32.224232	3.151558	0.961354	137.397232	-6.953675	59.931098	15.341252	55.856328	136.452711	-1.025713	51.677769	10.955788	38.373906
9.100000	-23.756697	-2.787520	5.772321	0.676170	0.440436	-0.065604	117.317009	-14.948302	3.005244	116.205545	22.154982	-26.127078	0.000000	119.475264	-6.806322	5.632819	114.678567	22.927194	-12.141061	0.000000	-32.147293	3.297470	1.042661	137.697238	-7.068304	60.419067	15.195963	55.506515	136.443458	-0.914403	52.335499	10.519035	37.796564
9.116667	-23.718267	-2.857096	5.761130	0.676326	0.442154	-0.066283	117.161139	-14.990629	2.949009	116.080925	22.005538	-26.114840	0.000000	119.352819	-6.696471	5.664366	114.630914	22.830547	-12.200439	0.000000	-32.027478	3.412389	1.088760	138.235496	-7.094624	61.241349	15.175240	54.771119	136.668508	-0.764486	53.696338	9.850895	36.621571
9.133333	-23.758172	-2.896427	5.701487	0.676175	0.445537	-0.066848	116.864383	-14.936903	2.834086	115.685422	21.761556	-26.197713	0.000000	119.057391	-6.572064	5.667717	114.351343	22.716880	-12.339654	0.000000	-31.882563	3.479314	1.081418	138.991287	-7.063005	62.467565	15.284094	53.477609	137.163859	-0.545896	56.018271	8.891445	34.579941
9.150000	-23.869340	-2.894317	5.595373	0.675722	0.450556	-0.067287	116.418504	-14.785319	2.663077	115.006499	21.423443	-26.391244	0.000000	118.567541	-6.443665	5.634793	113.812474	22.566673	-12.578610	0.000000	-31.728841	3.477656	1.014752	139.905456	-7.005051	64.000726	15.507789	51.582203	137.904766	-0.255730	59.287468	7.688717	31.603371
9.166667	-24.031332	-2.836536	5.443584	0.675133	0.457007	-0.067637	115.822669	-14.539791	2.455456	114.063292	21.014156	-26.679765	0.000000	117.874342	-6.331128	5.553458	113.024989	22.384745	-12.916667	0.000000	-31.563956	3.392664	0.900592	140.871031	-6.942315	65.520825	15.814553	49.311832	138.781976	0.060841	63.010677	6.456983	28.040934
9.183333	-24.217615	-2.714277	5.248513	0.674709	0.464659	-0.067942	115.078127	-14.214150	2.238519	112.904221	20.575345	-27.011852	0.000000	116.981107	-6.254186	5.413229	112.030455	22.203788	-13.329991	0.000000	-31.364367	3.225473	0.778499	141.767424	-6.892603	66.682891	16.157782	47.125954	139.629275	0.344194	66.403178	5.471476	24.593763
9.200000	-24.401516	-2.529047	5.019729	0.674755	0.473392	-0.068228	114.177639	-13.834701	2.035543	111.587823	20.147418	-27.325484	0.000000	115.890855	-6.221163	5.207832	110.876447	22.072278	-13.784500	0.000000	-31.099134	2.992631	0.703985	142.501112	-6.881432	67.381106	16.489288	45.443897	140.289929	0.574972	68.897988	4.879266	21.892752
9.216667	-24.564519	-2.288966	4.776681	0.675472	0.483226	-0.068502	113.106898	-13.435726	1.862329	110.160281	19.754856	-27.576590	0.000000	114.598549	-6.225813	4.930626	109.590752	22.031197	-14.246649	0.000000	-30.737899	2.716166	0.711697	143.001283	-6.934127	67.717796	16.782116	44.418408	140.657107	0.771380	70.384820	4.660664	20.154182
